<svg xmlns="http://www.w3.org/2000/svg" xmlns:xlink="http://www.w3.org/1999/xlink" version="1.1" x="0px" y="0px" viewBox="0 0 100 125" style="enable-background:new 0 0 100 100;" xml:space="preserve">
    <path d="M65.8,50.1l-13-32.7c-1-2.5-4.6-2.5-5.6,0L34.7,50.1L17.3,33.8c-2.2-2-5.7,0-4.9,2.9l7.1,28.8C20,67.5,21.8,69,24,69h26h0.5  h26c2.1,0,4-1.5,4.5-3.5l7.1-28.8c0.7-2.9-2.8-4.9-4.9-2.9L65.8,50.1z" fill="rgb(202 138 4)" />
    <path d="M75.2,81.5H25.8c-2.6,0-4.7-2.1-4.7-4.7v0c0-2.6,2.1-4.7,4.7-4.7h49.3c2.6,0,4.7,2.1,4.7,4.7v0  C79.8,79.4,77.7,81.5,75.2,81.5z" fill="rgb(202 138 4)" />
</svg>
